<svg xmlns="http://www.w3.org/2000/svg" version="1.1" xmlns:xlink="http://www.w3.org/1999/xlink" xmlns:svgjs="http://svgjs.dev/svgjs" width="100%" height="100%" viewBox="0 0 1000 600"><rect width="1000" height="600" x="0" y="0" fill="#4e62a5"/><g><rect width="333.3333333333333" height="333.3333333333333" y="283.9879836154704" fill="#f7c5cc" transform="matrix(0.47752615337838483,0,0,0.47752615337838483,0,84.80062077751343)" x="261.7657775878906"/><path d="M280.1979982454026 450.6546333701859L280.1979982454026 450.6546333701859Q280.1979982454026 434.4873186750374 282.50344564777936 420.7130000177989Q284.80889305015614 406.9386813605604 290.47037148130926 396.8705882742314Q296.1610327909734 386.7733123093914 306.3458573913468 381.1993825137715Q316.53068199172014 375.65463559666284 332.08515623813565 375.65463559666284L332.08515623813565 375.65463559666284Q347.63963048455116 375.65463559666284 357.7077235708801 381.1993825137715Q367.8049995357202 386.7733123093914 373.4664779668733 396.8705882742314Q379.15713927653746 406.9386813605604 381.46258667891425 420.7130000177989Q383.76803408129103 434.4873186750374 383.76803408129103 450.6546333701859L383.76803408129103 450.6546333701859Q383.76803408129103 467.05541109342323 381.46258667891425 480.8005468721506Q379.15713927653746 494.5748655293891 373.4664779668733 504.6429586157181Q367.8049995357202 514.7402345805581 357.7077235708801 520.1974328621336Q347.63963048455116 525.6546311437089 332.08515623813565 525.6546311437089L332.08515623813565 525.6546311437089Q316.53068199172014 525.6546311437089 306.3458573913468 520.1974328621336Q296.1610327909734 514.7402345805581 290.47037148130926 504.6429586157181Q284.80889305015614 494.5748655293891 282.50344564777936 480.8005468721506Q280.1979982454026 467.05541109342323 280.1979982454026 450.6546333701859ZM366.75441590932064 450.6546333701859L366.75441590932064 450.6546333701859Q366.75441590932064 438.25191000296905 365.58710076887667 427.42506207535155Q364.44896850694386 416.6273970262451 361.0929374781675 408.310276650582Q357.7077235708801 400.02233915343004 350.7913813637498 395.2947128346321Q343.84585627810833 390.56708651583415 332.08515623813565 390.56708651583415L332.08515623813565 390.56708651583415Q320.5287363477406 390.56708651583415 313.49566262656595 395.2947128346321Q306.4625889053912 400.02233915343004 302.98982636257045 408.310276650582Q299.51706381974975 416.6273970262451 298.34974867930583 427.42506207535155Q297.21161641737297 438.25191000296905 297.21161641737297 450.6546333701859L297.21161641737297 450.6546333701859Q297.21161641737297 463.46591703655815 298.34974867930583 474.4094964782201Q299.51706381974975 485.32389304137087 302.98982636257045 493.52428190298957Q306.4625889053912 501.7246707646082 313.49566262656595 506.2188340553174Q320.5287363477406 510.74218022453766 332.08515623813565 510.74218022453766L332.08515623813565 510.74218022453766Q343.84585627810833 510.74218022453766 350.7913813637498 506.2188340553174Q357.7077235708801 501.7246707646082 361.0929374781675 493.52428190298957Q364.44896850694386 485.32389304137087 365.58710076887667 474.4094964782201Q366.75441590932064 463.46591703655815 366.75441590932064 450.6546333701859ZM412.3380721436564 450.6546333701859L412.3380721436564 450.6546333701859Q412.3380721436564 434.4873186750374 414.6727024245443 420.7130000177989Q416.97814982692114 406.9386813605604 422.6396282580742 396.8705882742314Q428.3302895677384 386.7733123093914 438.5151141681117 381.1993825137715Q448.69993876848514 375.65463559666284 464.2544130149006 375.65463559666284L464.2544130149006 375.65463559666284Q479.80888726131604 375.65463559666284 489.87698034764503 381.1993825137715Q499.9742563124851 386.7733123093914 505.6357347436383 396.8705882742314Q511.3263960533024 406.9386813605604 513.6318434556792 420.7130000177989Q515.937290858056 434.4873186750374 515.937290858056 450.6546333701859L515.937290858056 450.6546333701859Q515.937290858056 467.05541109342323 513.6318434556792 480.8005468721506Q511.3263960533024 494.5748655293891 505.6357347436383 504.6429586157181Q499.9742563124851 514.7402345805581 489.87698034764503 520.1974328621336Q479.80888726131604 525.6546311437089 464.2544130149006 525.6546311437089L464.2544130149006 525.6546311437089Q448.69993876848514 525.6546311437089 438.5151141681117 520.1974328621336Q428.3302895677384 514.7402345805581 422.6396282580742 504.6429586157181Q416.97814982692114 494.5748655293891 414.6727024245443 480.8005468721506Q412.3380721436564 467.05541109342323 412.3380721436564 450.6546333701859ZM498.9236726860856 450.6546333701859L498.9236726860856 450.6546333701859Q498.9236726860856 438.25191000296905 497.75635754564166 427.42506207535155Q496.61822528370885 416.6273970262451 493.23301137642136 408.310276650582Q489.87698034764503 400.02233915343004 482.96063814051473 395.2947128346321Q476.01511305487327 390.56708651583415 464.2544130149006 390.56708651583415L464.2544130149006 390.56708651583415Q452.6979931245056 390.56708651583415 445.6649194033309 395.2947128346321Q438.6026628036451 400.02233915343004 435.15908313933545 408.310276650582Q431.68632059651475 416.6273970262451 430.5190054560708 427.42506207535155Q429.38087319413796 438.25191000296905 429.38087319413796 450.6546333701859L429.38087319413796 450.6546333701859Q429.38087319413796 463.46591703655815 430.5190054560708 474.4094964782201Q431.68632059651475 485.32389304137087 435.15908313933545 493.52428190298957Q438.6026628036451 501.7246707646082 445.6649194033309 506.2188340553174Q452.6979931245056 510.74218022453766 464.2544130149006 510.74218022453766L464.2544130149006 510.74218022453766Q476.01511305487327 510.74218022453766 482.96063814051473 506.2188340553174Q489.87698034764503 501.7246707646082 493.23301137642136 493.52428190298957Q496.61822528370885 485.32389304137087 497.75635754564166 474.4094964782201Q498.9236726860856 463.46591703655815 498.9236726860856 450.6546333701859ZM559.8575230172592 524.1954872181541L559.8575230172592 391.8219502918114L539.2544107884237 391.8219502918114L539.2544107884237 377.1137795222178L576.6668610396518 377.1137795222178L576.6668610396518 524.1954872181541L559.8575230172592 524.1954872181541Z " fill="#950b0b" transform="matrix(0.47752615337838483,0,0,0.47752615337838483,0,84.80062077751343)"/><path d="M678.4324338640322 493.08527549508676L678.4324338640322 379.09251260624734L691.4601781941851 379.09251260624734L691.4601781941851 429.41669860380046L752.5277297417778 429.41669860380046L752.5277297417778 379.09251260624734L765.5554740719308 379.09251260624734L765.5554740719308 493.08527549508676L752.5277297417778 493.08527549508676L752.5277297417778 440.8159748926844L691.4601781941851 440.8159748926844L691.4601781941851 493.08527549508676L678.4324338640322 493.08527549508676ZM794.3703113577208 493.08527549508676L794.3703113577208 411.66187343163006L806.4254983854493 411.66187343163006L806.4254983854493 493.08527549508676L794.3703113577208 493.08527549508676ZM800.5675369592171 395.37719301893867L800.5675369592171 395.37719301893867Q796.8130134196244 395.37719301893867 794.3703113577208 392.934490957035Q791.9276092958171 390.4917888951313 791.9276092958171 386.9182062490129L791.9276092958171 386.9182062490129Q791.9276092958171 383.1636827094202 794.3703113577208 380.7209806475165Q796.8130134196244 378.2782785856128 800.5675369592171 378.2782785856128L800.5675369592171 378.2782785856128Q803.9827963235456 378.2782785856128 806.5159688321864 380.7209806475165Q809.0265237291429 383.1636827094202 809.0265237291429 386.9182062490129L809.0265237291429 386.9182062490129Q809.0265237291429 390.4917888951313 806.5159688321864 392.934490957035Q803.9827963235456 395.37719301893867 800.5675369592171 395.37719301893867ZM895.6745940916716 426.8156732601067L896.4888281123061 411.66187343163006L907.7297811194 411.66187343163006L907.7297811194 478.11241656008445Q907.7297811194 493.08527549508676 901.0349680608491 503.7607882100733Q894.3627726139825 514.4136833133755 881.6742924590939 520.0454686227647Q868.9631946925209 525.6546363204695 850.7333996749802 525.6546363204695L850.7333996749802 525.6546363204695L848.7656674584467 514.4136833133755Q871.7225433180047 514.0970367497955 883.6194070639431 504.891668794288Q895.5162708098815 495.68630083878054 895.5162708098815 478.11241656008445L895.5162708098815 478.11241656008445L895.5162708098815 476.30300762534097L896.8054746758862 476.6422718006054Q893.0735687479778 483.8120547045264 885.5645216687923 488.92363494517673Q878.0780922012912 494.05783279751137 866.203846067037 494.21615607930147L866.203846067037 494.21615607930147Q854.9628930599432 494.21615607930147 846.5717591250702 489.1045758386511Q838.1806251901974 483.97037798631646 833.5440147949172 474.51621630228175Q828.907404399637 465.08467222993136 828.907404399637 452.3735744633584L828.907404399637 452.3735744633584Q828.907404399637 439.6624766967854 833.5440147949172 430.2987854594879Q838.1806251901974 420.9350942221904 846.5717591250702 415.73304353480285Q854.9628930599432 410.53099284741535 866.203846067037 410.53099284741535L866.203846067037 410.53099284741535Q873.5319522527482 410.53099284741535 879.2315903971902 412.72490118079185Q884.9312285416321 414.9188095141683 889.0023986448049 418.58286260702386Q893.0735687479778 422.2469156998794 895.6745940916716 426.8156732601067L895.6745940916716 426.8156732601067ZM842.0934720115802 452.3735744633584L842.0934720115802 452.3735744633584Q842.0934720115802 466.3738760959361 849.3311077505541 474.60668674901893Q856.5913611012123 482.8168797904175 868.9631946925209 482.8168797904175L868.9631946925209 482.8168797904175Q876.449624160022 482.8168797904175 882.4885264797284 479.2432971442991Q888.5048111877505 475.6697144981807 892.0105409988159 468.8165781578398Q895.5162708098815 461.9860594291832 895.5162708098815 452.3735744633584L895.5162708098815 452.3735744633584Q895.5162708098815 442.76108949753365 892.0105409988159 435.9984236039299Q888.5048111877505 429.2583753220104 882.4885264797284 425.59432222915484Q876.449624160022 421.9302691362993 868.9631946925209 421.9302691362993L868.9631946925209 421.9302691362993Q856.7496843830023 421.9302691362993 849.4215781972913 430.230932624435Q842.0934720115802 438.53159611257075 842.0934720115802 452.3735744633584ZM994.3552338702442 426.8156732601067L995.1694678908788 411.66187343163006L1006.4104208979726 411.66187343163006L1006.4104208979726 478.11241656008445Q1006.4104208979726 493.08527549508676 999.7382254511061 503.7607882100733Q993.0434123925552 514.4136833133755 980.3549322376665 520.0454686227647Q967.6438344710936 525.6546363204695 949.414039453553 525.6546363204695L949.414039453553 525.6546363204695L947.4463072370194 514.4136833133755Q970.4258007082617 514.0970367497955 982.3000468425158 504.891668794288Q994.1969105884542 495.68630083878054 994.1969105884542 478.11241656008445L994.1969105884542 478.11241656008445L994.1969105884542 476.30300762534097L995.486114454459 476.6422718006054Q991.7542085265505 483.8120547045264 984.2677790590493 488.92363494517673Q976.7587319798639 494.05783279751137 964.8844858456098 494.21615607930147L964.8844858456098 494.21615607930147Q953.6435328385159 494.21615607930147 945.252398903643 489.1045758386511Q936.8612649687701 483.97037798631646 932.2246545734898 474.51621630228175Q927.5880441782097 465.08467222993136 927.5880441782097 452.3735744633584L927.5880441782097 452.3735744633584Q927.5880441782097 439.6624766967854 932.2246545734898 430.2987854594879Q936.8612649687701 420.9350942221904 945.252398903643 415.73304353480285Q953.6435328385159 410.53099284741535 964.8844858456098 410.53099284741535L964.8844858456098 410.53099284741535Q972.2125920313209 410.53099284741535 977.9122301757628 412.72490118079185Q983.6118683202048 414.9188095141683 987.6830384233775 418.58286260702386Q991.7542085265505 422.2469156998794 994.3552338702442 426.8156732601067L994.3552338702442 426.8156732601067ZM940.7741117901529 452.3735744633584L940.7741117901529 452.3735744633584Q940.7741117901529 466.3738760959361 948.034365140811 474.60668674901893Q955.272000879785 482.8168797904175 967.6438344710936 482.8168797904175L967.6438344710936 482.8168797904175Q975.1302639385948 482.8168797904175 981.1691662583011 479.2432971442991Q987.1854509663232 475.6697144981807 990.6911807773887 468.8165781578398Q994.1969105884542 461.9860594291832 994.1969105884542 452.3735744633584L994.1969105884542 452.3735744633584Q994.1969105884542 442.76108949753365 990.6911807773887 435.9984236039299Q987.1854509663232 429.2583753220104 981.1691662583011 425.59432222915484Q975.1302639385948 421.9302691362993 967.6438344710936 421.9302691362993L967.6438344710936 421.9302691362993Q955.4303241615751 421.9302691362993 948.1022179758639 430.230932624435Q940.7741117901529 438.53159611257075 940.7741117901529 452.3735744633584ZM1066.5054151431405 494.21615607930147L1066.5054151431405 494.21615607930147Q1054.9251979607825 494.21615607930147 1045.8103004520121 489.172428673704Q1036.6954029432418 484.1287012681065 1031.4933522558542 474.765010030809Q1026.2686839567823 465.4013187935115 1026.2686839567823 452.53189774514846L1026.2686839567823 452.53189774514846Q1026.2686839567823 439.50415341499536 1031.5612050909072 430.07260934264497Q1036.853726225032 420.61844765861025 1046.0590941805394 415.5747202530128Q1055.2644621360469 410.53099284741535 1066.822061706721 410.53099284741535L1066.822061706721 410.53099284741535Q1078.3796612773947 410.53099284741535 1087.5850292329023 415.5747202530128Q1096.7903971884098 420.61844765861025 1102.0829183225342 429.9821388959078Q1107.375439456659 439.3458301332053 1107.375439456659 452.21525118156836L1107.375439456659 452.21525118156836Q1107.375439456659 465.2429955117214 1101.992447875797 474.67453958407185Q1096.6320739066196 484.1287012681065 1087.336235504375 489.172428673704Q1078.0630147138145 494.21615607930147 1066.5054151431405 494.21615607930147ZM1066.3244742496663 482.65855650862744L1066.3244742496663 482.65855650862744Q1073.4942571535871 482.65855650862744 1079.8498060368738 479.49209087282634Q1086.2053549201603 476.30300762534097 1090.1860545765958 469.5629593434215Q1094.1893718447159 462.80029344981773 1094.1893718447159 452.3735744633584L1094.1893718447159 452.3735744633584Q1094.1893718447159 441.78853219510904 1090.2765250233333 435.1163367482424Q1086.3636782019503 428.44414130137585 1080.098599765401 425.2550580538905Q1073.8335213288517 422.0885924180894 1066.6637384249307 422.0885924180894L1066.6637384249307 422.0885924180894Q1059.4939555210094 422.0885924180894 1053.2967299195134 425.2550580538905Q1047.122121929701 428.44414130137585 1043.2997455550553 435.18418958329534Q1039.4547515687254 441.9468554768991 1039.4547515687254 452.3735744633584L1039.4547515687254 452.3735744633584Q1039.4547515687254 462.9586167316078 1043.2092751083183 469.6308121784744Q1046.963798647911 476.30300762534097 1053.0705538026702 479.49209087282634Q1059.1773089574294 482.65855650862744 1066.3244742496663 482.65855650862744ZM1125.7635577559895 410.0334053903609L1123.8184431511404 379.09251260624734L1136.6878641995036 379.09251260624734L1134.72013198297 410.0334053903609L1125.7635577559895 410.0334053903609ZM1153.289191175775 472.0735142403781L1165.0277316399233 468.1606674189953Q1166.0002889423479 473.0460715428027 1168.6013142860415 476.23515479028805Q1171.2023396297354 479.40162042608915 1175.3639801796453 481.0300884673583Q1179.5030031178712 482.65855650862744 1185.044317980523 482.65855650862744L1185.044317980523 482.65855650862744Q1193.684245643923 482.65855650862744 1198.1625327574134 479.3337675910363Q1202.6408198709032 475.9863610617609 1202.6408198709032 470.9426336561634L1202.6408198709032 470.9426336561634Q1202.6408198709032 466.71314027120053 1199.9493240804723 464.0894973158225Q1197.2578282900415 461.4884719721287 1192.8700116232885 459.7921510958067Q1188.4595773448514 458.0732126078004 1183.0992033756738 456.76139113011135L1183.0992033756738 456.76139113011135Q1178.8697099907108 455.78883382768674 1173.9843058669035 454.4091595149448Q1169.0989017430961 453.0294852022029 1164.688467464659 450.5867831402992Q1160.3006507979057 448.14408107839546 1157.5186845607377 444.2312342570127Q1154.759335935254 440.31838743563 1154.759335935254 433.96283855234344L1154.759335935254 433.96283855234344Q1154.759335935254 426.9739965418968 1158.5817123098996 421.6814754077721Q1162.404088684545 416.38895427364736 1169.1667545781488 413.4486647546892Q1175.9294204717526 410.53099284741535 1184.727671416943 410.53099284741535L1184.727671416943 410.53099284741535Q1194.8151262281378 410.53099284741535 1202.7086727059564 414.9188095141683Q1210.624836795459 419.3066261809212 1213.700831984523 428.6024645831659L1213.700831984523 428.6024645831659L1202.3015556956389 432.5153114045487Q1201.1706751114243 428.2632004079015 1198.1625327574134 426.0014392394721Q1195.1543904034024 423.7170604593585 1191.4903373105467 422.90282643872393Q1187.8262842176912 422.0885924180894 1184.2300839598884 422.0885924180894L1184.2300839598884 422.0885924180894Q1176.9019777741773 422.0885924180894 1172.423690660687 424.93841149031033Q1167.9454035471972 427.78823056253134 1167.9454035471972 433.4878687069733L1167.9454035471972 433.4878687069733Q1167.9454035471972 436.5864815077215 1169.415548306676 438.62206655930794Q1170.8856930661552 440.65765161089433 1173.486718409849 441.9468554768991Q1176.0877437535428 443.2586769545881 1179.6839440113454 444.14076381027553Q1183.2575266574638 445.0454682776473 1187.4870200424266 446.176348861862L1187.4870200424266 446.176348861862Q1192.2141008844442 447.32984705776096 1197.0995050082515 449.02616793408293Q1201.9849091320589 450.74510642208924 1206.2144025170219 453.4366022125202Q1210.4438959019847 456.1280980029511 1213.1353916924156 460.26712094117687Q1215.8268874828466 464.42876149108685 1215.8268874828466 470.603369480899L1215.8268874828466 470.603369480899Q1215.8268874828466 477.77315238482004 1211.9140406614638 483.0656735189447Q1208.0011938400808 488.3581946530694 1201.0802046646872 491.2984841720276Q1194.1592154892933 494.21615607930147 1185.044317980523 494.21615607930147L1185.044317980523 494.21615607930147Q1172.5141611074246 494.21615607930147 1164.2813504543415 488.60698838159664Q1156.0711574129432 482.99782068389186 1153.289191175775 472.0735142403781L1153.289191175775 472.0735142403781ZM1295.6218215050344 435.1163367482424L1322.8081907495548 435.1163367482424Q1331.9457058700095 435.1163367482424 1337.6453440144514 432.3343705110743Q1343.3449821588938 429.5750218855905 1346.0138603376404 424.53129447999305Q1348.7053561280713 419.4875670743956 1348.7053561280713 412.7927540158447L1348.7053561280713 412.7927540158447Q1348.7053561280713 402.20771174759534 1342.598600973312 396.34975032136333Q1336.4918458185525 390.4917888951313 1322.8081907495548 390.4917888951313L1322.8081907495548 390.4917888951313L1295.6218215050344 390.4917888951313L1295.6218215050344 435.1163367482424ZM1361.574777176434 412.7927540158447L1361.574777176434 412.7927540158447Q1361.574777176434 419.4875670743956 1359.3808688430577 425.59432222915484Q1357.1869605096813 431.7010773839141 1352.4598796676637 436.4055406142472Q1347.7327988256466 441.13262145626453 1340.4046926399355 443.82411724669544Q1333.0765864542245 446.51561303712634 1322.8081907495548 446.51561303712634L1322.8081907495548 446.51561303712634L1295.6218215050344 446.51561303712634L1295.6218215050344 493.08527549508676L1282.594077174881 493.08527549508676L1282.594077174881 379.09251260624734L1322.8081907495548 379.09251260624734Q1336.1751992549725 379.09251260624734 1344.7246564716356 383.66127016647465Q1353.2741136882983 388.20741011501764 1357.4131366265242 395.87478047599313Q1361.574777176434 403.51953322528436 1361.574777176434 412.7927540158447ZM1410.428818414508 494.21615607930147L1410.428818414508 494.21615607930147Q1398.871218843834 494.21615607930147 1389.7563213350636 489.172428673704Q1380.6188062146093 484.1287012681065 1375.4167555272215 474.765010030809Q1370.2147048398342 465.4013187935115 1370.2147048398342 452.53189774514846L1370.2147048398342 452.53189774514846Q1370.2147048398342 439.50415341499536 1375.507225973959 430.07260934264497Q1380.799747108084 420.61844765861025 1389.982497451907 415.5747202530128Q1399.1878654074144 410.53099284741535 1410.7454649780884 410.53099284741535L1410.7454649780884 410.53099284741535Q1422.3256821604464 410.53099284741535 1431.5084325042699 415.5747202530128Q1440.7138004597773 420.61844765861025 1446.0063215939017 429.9821388959078Q1451.2988427280266 439.3458301332053 1451.2988427280266 452.21525118156836L1451.2988427280266 452.21525118156836Q1451.2988427280266 465.2429955117214 1445.938468758849 474.67453958407185Q1440.555477177987 484.1287012681065 1431.282256387427 489.172428673704Q1421.986417985182 494.21615607930147 1410.428818414508 494.21615607930147ZM1410.2704951327182 482.65855650862744L1410.2704951327182 482.65855650862744Q1417.440278036639 482.65855650862744 1423.7732093082413 479.49209087282634Q1430.128758191528 476.30300762534097 1434.1320754596477 469.5629593434215Q1438.1127751160834 462.80029344981773 1438.1127751160834 452.3735744633584L1438.1127751160834 452.3735744633584Q1438.1127751160834 441.78853219510904 1434.1999282947008 435.1163367482424Q1430.2870814733178 428.44414130137585 1424.0220030367686 425.2550580538905Q1417.7569246002195 422.0885924180894 1410.5871416962982 422.0885924180894L1410.5871416962982 422.0885924180894Q1403.4173587923774 422.0885924180894 1397.2427508025648 425.2550580538905Q1391.0455252010688 428.44414130137585 1387.2231488264229 435.18418958329534Q1383.4007724517774 441.9468554768991 1383.4007724517774 452.3735744633584L1383.4007724517774 452.3735744633584Q1383.4007724517774 462.9586167316078 1387.1326783796858 469.6308121784744Q1390.8872019192786 476.30300762534097 1396.993957074038 479.49209087282634Q1403.100712228797 482.65855650862744 1410.2704951327182 482.65855650862744ZM1471.3380466803105 493.08527549508676L1471.3380466803105 411.66187343163006L1482.5789996874046 411.66187343163006L1483.2122928145645 423.55873717756845Q1486.4692288971032 419.1483028991312 1491.1284569040677 416.049690098383Q1495.7650672993477 412.973694909319 1501.3742349970526 411.7523438783672Q1507.0060203064418 410.53099284741535 1513.3389515780436 411.66187343163006L1513.3389515780436 411.66187343163006L1513.3389515780436 423.87538374114854Q1506.5084328493872 422.5635622634595 1501.0575884334721 423.87538374114854Q1495.6067440175575 425.18720521883756 1491.693897196175 428.76078786495594Q1487.781050374792 432.3343705110743 1485.6549948764682 437.8078325386734Q1483.551556989829 443.2586769545881 1483.551556989829 450.42845985850914L1483.551556989829 450.42845985850914L1483.551556989829 493.08527549508676L1471.3380466803105 493.08527549508676ZM1534.3507128327524 411.66187343163006L1534.3507128327524 402.0493884658053Q1534.3507128327524 393.09281423882504 1537.2910023517106 386.9182062490129Q1540.2086742589845 380.7209806475165 1546.6546935890083 377.8711615752955Q1553.0780953073477 375.0213425030745 1563.8214608573867 375.83557652370905L1563.8214608573867 375.83557652370905L1563.8214608573867 386.73726535553857Q1554.050652609772 385.92303133490395 1550.3187466818636 389.92634860302394Q1546.5642231422707 393.9070482594596 1546.5642231422707 402.0493884658053L1546.5642231422707 402.0493884658053L1546.5642231422707 411.66187343163006L1564.4773715962315 411.66187343163006L1564.4773715962315 423.061149720514L1546.5642231422707 423.061149720514L1546.5642231422707 493.08527549508676L1534.3507128327524 493.08527549508676L1534.3507128327524 423.061149720514L1522.9514365438686 423.061149720514L1522.9514365438686 411.66187343163006L1534.3507128327524 411.66187343163006ZM1616.2717023532637 494.21615607930147L1616.2717023532637 494.21615607930147Q1604.7141027825896 494.21615607930147 1595.576587662135 489.172428673704Q1586.4616901533645 484.1287012681065 1581.2596394659772 474.765010030809Q1576.0349711669055 465.4013187935115 1576.0349711669055 452.53189774514846L1576.0349711669055 452.53189774514846Q1576.0349711669055 439.50415341499536 1581.32749230103 430.07260934264497Q1586.6200134351548 420.61844765861025 1595.8253813906622 415.5747202530128Q1605.0307493461696 410.53099284741535 1616.5883489168436 410.53099284741535L1616.5883489168436 410.53099284741535Q1628.1459484875177 410.53099284741535 1637.351316443025 415.5747202530128Q1646.5566843985325 420.61844765861025 1651.8492055326574 429.9821388959078Q1657.1417266667818 439.3458301332053 1657.1417266667818 452.21525118156836L1657.1417266667818 452.21525118156836Q1657.1417266667818 465.2429955117214 1651.7587350859203 474.67453958407185Q1646.3983611167423 484.1287012681065 1637.1025227144978 489.172428673704Q1627.8293019239377 494.21615607930147 1616.2717023532637 494.21615607930147ZM1616.1133790714734 482.65855650862744L1616.1133790714734 482.65855650862744Q1623.2605443637103 482.65855650862744 1629.616093246997 479.49209087282634Q1635.9716421302833 476.30300762534097 1639.952341786719 469.5629593434215Q1643.955659054839 462.80029344981773 1643.955659054839 452.3735744633584L1643.955659054839 452.3735744633584Q1643.955659054839 441.78853219510904 1640.042812233456 435.1163367482424Q1636.1299654120735 428.44414130137585 1629.8648869755239 425.2550580538905Q1623.5998085389747 422.0885924180894 1616.4300256350534 422.0885924180894L1616.4300256350534 422.0885924180894Q1609.2602427311326 422.0885924180894 1603.0856347413205 425.2550580538905Q1596.888409139824 428.44414130137585 1593.0660327651785 435.18418958329534Q1589.2436563905326 441.9468554768991 1589.2436563905326 452.3735744633584L1589.2436563905326 452.3735744633584Q1589.2436563905326 462.9586167316078 1592.9755623184415 469.6308121784744Q1596.7300858580338 476.30300762534097 1602.8368410127932 479.49209087282634Q1608.9435961675526 482.65855650862744 1616.1133790714734 482.65855650862744ZM1677.1809306190662 493.08527549508676L1677.1809306190662 375.83557652370905L1689.3944409285846 375.83557652370905L1689.3944409285846 493.08527549508676L1677.1809306190662 493.08527549508676ZM1716.7391334548956 493.08527549508676L1716.7391334548956 411.66187343163006L1728.7943204826238 411.66187343163006L1728.7943204826238 493.08527549508676L1716.7391334548956 493.08527549508676ZM1722.9363590563921 395.37719301893867L1722.9363590563921 395.37719301893867Q1719.1818355167993 395.37719301893867 1716.7391334548956 392.934490957035Q1714.296431392992 390.4917888951313 1714.296431392992 386.9182062490129L1714.296431392992 386.9182062490129Q1714.296431392992 383.1636827094202 1716.7391334548956 380.7209806475165Q1719.1818355167993 378.2782785856128 1722.9363590563921 378.2782785856128L1722.9363590563921 378.2782785856128Q1726.3516184207206 378.2782785856128 1728.8847909293613 380.7209806475165Q1731.3953458263177 383.1636827094202 1731.3953458263177 386.9182062490129L1731.3953458263177 386.9182062490129Q1731.3953458263177 390.4917888951313 1728.8847909293613 392.934490957035Q1726.3516184207206 395.37719301893867 1722.9363590563921 395.37719301893867ZM1791.4903400714857 494.21615607930147L1791.4903400714857 494.21615607930147Q1779.9327405008116 494.21615607930147 1770.8178429920413 489.172428673704Q1761.680327871587 484.1287012681065 1756.4782771841992 474.765010030809Q1751.276226496812 465.4013187935115 1751.276226496812 452.53189774514846L1751.276226496812 452.53189774514846Q1751.276226496812 439.50415341499536 1756.5687476309363 430.07260934264497Q1761.8612687650611 420.61844765861025 1771.0440191088842 415.5747202530128Q1780.249387064392 410.53099284741535 1791.8069866350656 410.53099284741535L1791.8069866350656 410.53099284741535Q1803.387203817424 410.53099284741535 1812.5699541612476 415.5747202530128Q1821.775322116755 420.61844765861025 1827.0678432508794 429.9821388959078Q1832.3603643850042 439.3458301332053 1832.3603643850042 452.21525118156836L1832.3603643850042 452.21525118156836Q1832.3603643850042 465.2429955117214 1826.9999904158267 474.67453958407185Q1821.6169988349648 484.1287012681065 1812.3437780444042 489.172428673704Q1803.0479396421597 494.21615607930147 1791.4903400714857 494.21615607930147ZM1791.3320167896954 482.65855650862744L1791.3320167896954 482.65855650862744Q1798.5017996936167 482.65855650862744 1804.834730965219 479.49209087282634Q1811.1902798485053 476.30300762534097 1815.1935971166254 469.5629593434215Q1819.174296773061 462.80029344981773 1819.174296773061 452.3735744633584L1819.174296773061 452.3735744633584Q1819.174296773061 441.78853219510904 1815.261449951678 435.1163367482424Q1811.3486031302955 428.44414130137585 1805.0835246937463 425.2550580538905Q1798.8184462571967 422.0885924180894 1791.6486633532759 422.0885924180894L1791.6486633532759 422.0885924180894Q1784.4788804493546 422.0885924180894 1778.3042724595425 425.2550580538905Q1772.107046858046 428.44414130137585 1768.2846704834005 435.18418958329534Q1764.462294108755 441.9468554768991 1764.462294108755 452.3735744633584L1764.462294108755 452.3735744633584Q1764.462294108755 462.9586167316078 1768.1942000366635 469.6308121784744Q1771.9487235762563 476.30300762534097 1778.0554787310152 479.49209087282634Q1784.1622338857746 482.65855650862744 1791.3320167896954 482.65855650862744Z " fill="#e9e9e9" transform="matrix(0.47752615337838483,0,0,0.47752615337838483,0,84.80062077751343)"/></g></svg>